<svg width="51" height="32" viewBox="0 0 51 32" fill="none" xmlns="http://www.w3.org/2000/svg">
<path fill-rule="evenodd" clip-rule="evenodd" d="M23.6723 28.5865C23.7934 28.6888 23.9228 28.791 24.0501 28.8912C21.5937 30.5253 18.6449 31.4748 15.479 31.4748C6.9287 31.4769 0 24.5482 0 16.0001C0 7.45398 6.9287 0.523193 15.4769 0.523193C18.6449 0.523193 21.5937 1.47485 24.0438 3.10685C24.0206 3.12659 23.9974 3.14604 23.9743 3.16533C23.8732 3.25003 23.776 3.3315 23.6995 3.41989C20.0348 6.5858 17.9374 11.175 17.9374 16.0001C17.9374 20.823 20.0264 25.4122 23.6723 28.5865ZM34.6101 0.523193C31.4379 0.523193 28.4932 1.47485 26.0431 3.10685C26.0663 3.12656 26.0895 3.14599 26.1125 3.16526L26.1126 3.16533C26.2137 3.25003 26.311 3.3315 26.3875 3.41989C30.0522 6.5858 32.1496 11.175 32.1496 16.0001C32.1496 20.8209 30.0605 25.406 26.4146 28.5865C26.2936 28.6888 26.1642 28.791 26.0369 28.8912C28.4932 30.5253 31.4379 31.4748 34.608 31.4748C43.1583 31.4769 50.087 24.5482 50.087 16.0001C50.087 7.45606 43.1583 0.523193 34.6101 0.523193ZM24.4591 4.32354C24.649 4.1545 24.8431 3.99798 25.0435 3.84145C25.2438 3.99798 25.44 4.15658 25.6278 4.32354C28.8918 7.15972 30.9517 11.3357 30.9517 16.0001C30.9517 20.6665 28.8897 24.8404 25.6278 27.6766C25.4379 27.8435 25.2438 28.0063 25.0435 28.1608C24.8452 28.0063 24.647 27.8435 24.4591 27.6766C21.1951 24.8404 19.1353 20.6665 19.1353 16.0001C19.1353 11.3357 21.1951 7.15972 24.4591 4.32354Z" fill="white" fill-opacity="0.6"/>
</svg>
